<?xml version="1.0" standalone="no"?>
<!DOCTYPE svg PUBLIC "-//W3C//DTD SVG 20010904//EN"
 "http://www.w3.org/TR/2001/REC-SVG-20010904/DTD/svg10.dtd">
<svg version="1.0" xmlns="http://www.w3.org/2000/svg"
 width="1000.000000pt" height="1000.000000pt" viewBox="0 0 1000.000000 1000.000000"
 preserveAspectRatio="xMidYMid meet">
<metadata>
Created by potrace 1.11, written by Peter Selinger 2001-2013
</metadata>
<g transform="translate(0.000000,1000.000000) scale(0.100000,-0.100000)"
fill="#000000" stroke="none">
<path d="M3350 7100 c0 -6 -11 -8 -25 -4 -21 5 -25 3 -25 -17 0 -54 -23 -102
-78 -162 -31 -34 -74 -87 -95 -118 -20 -31 -55 -70 -76 -87 -26 -21 -55 -63
-90 -131 -28 -54 -70 -123 -94 -152 -24 -30 -63 -81 -87 -114 -24 -33 -65 -84
-92 -113 -26 -30 -48 -60 -48 -68 0 -27 -39 -92 -91 -151 -28 -32 -58 -74 -66
-92 -25 -58 -117 -190 -211 -304 -109 -130 -155 -197 -452 -672 -128 -203
-272 -431 -320 -505 -48 -74 -97 -154 -109 -177 -11 -23 -27 -46 -33 -50 -7
-4 -26 -35 -41 -68 -16 -33 -46 -78 -68 -100 -21 -21 -39 -44 -39 -51 0 -7
-11 -25 -23 -41 -13 -15 -37 -50 -52 -78 -70 -122 -199 -258 -266 -280 -52
-18 -66 -30 -69 -60 -4 -36 0 -44 28 -59 15 -8 48 -34 72 -58 60 -59 90 -78
123 -78 15 0 27 -6 27 -12 0 -10 2 -10 8 0 7 9 13 8 27 -8 12 -13 31 -20 56
-20 25 0 47 -8 66 -24 l29 -25 60 91 c32 50 78 114 102 142 24 28 76 101 116
161 70 105 99 136 214 233 36 30 60 62 82 107 17 36 35 63 41 60 5 -4 9 3 9
14 0 13 14 30 39 45 22 14 71 62 111 108 39 46 82 88 94 93 28 12 106 86 106
100 0 6 25 30 55 54 41 33 58 54 66 84 6 25 17 41 30 44 10 3 16 9 14 14 -10
15 -40 -4 -125 -84 -117 -109 -160 -142 -160 -124 0 37 295 336 357 362 16 7
50 36 77 66 26 30 58 56 70 59 11 3 34 25 50 49 32 48 54 61 67 40 8 -11 21
-1 62 44 29 31 60 57 69 57 9 0 38 20 65 44 26 24 57 45 68 47 11 2 30 20 43
39 16 25 31 35 51 36 30 2 72 21 83 38 4 6 8 21 8 33 0 17 12 29 49 47 26 14
78 45 115 70 36 25 68 46 71 46 2 0 2 -8 -1 -17 -4 -16 -3 -16 8 1 36 51 50
65 79 75 l32 11 -5 -44 c-3 -24 -20 -74 -38 -111 -24 -49 -35 -89 -41 -146 -4
-43 -17 -109 -28 -146 -11 -37 -32 -135 -48 -218 -27 -146 -28 -158 -24 -425
3 -241 1 -283 -14 -338 -16 -58 -17 -76 -6 -190 29 -299 96 -616 194 -912 139
-418 208 -560 328 -675 l52 -50 -37 57 c-19 32 -48 77 -62 100 -15 23 -34 63
-43 88 -9 25 -27 62 -40 83 -13 21 -26 59 -29 83 -2 24 -9 44 -13 44 -5 0 -9
12 -9 28 -1 15 -7 38 -15 52 -8 14 -14 46 -15 71 0 29 -6 51 -15 59 -8 7 -15
21 -15 31 0 10 -5 21 -10 24 -17 10 -8 129 10 136 10 4 5 8 -15 13 l-31 7 -2
112 c-2 62 -7 116 -13 122 -13 13 -11 46 2 42 6 -1 14 4 16 11 3 6 -2 12 -11
12 -19 0 -19 2 -4 35 10 21 9 28 -2 35 -11 7 -11 11 -1 23 9 12 9 16 0 19 -9
3 -9 13 0 41 10 31 10 50 -4 108 -21 95 -22 229 -1 245 12 8 13 13 4 22 -9 9
-9 15 0 24 8 8 12 62 12 179 0 257 28 551 67 694 9 33 17 74 18 91 1 17 5 36
9 43 9 13 24 96 32 170 3 29 17 78 30 108 26 58 77 275 72 302 -2 10 8 21 27
29 19 8 22 11 8 8 -26 -5 -30 12 -10 47 24 44 43 60 111 94 37 19 66 36 63 39
-3 3 -33 -6 -68 -20 -59 -24 -62 -24 -39 -5 25 21 153 89 167 89 4 0 -3 -7
-15 -16 -24 -17 -29 -39 -10 -50 7 -4 8 -3 4 5 -8 12 10 41 24 41 5 0 10 -7
12 -15 2 -10 17 -4 56 26 28 22 52 45 52 52 0 7 33 23 72 35 48 16 79 33 95
53 14 16 35 29 46 29 12 0 28 9 35 20 7 11 23 20 36 20 27 0 86 27 86 40 0 10
90 46 107 42 6 -1 36 13 65 31 81 52 129 74 176 80 24 3 72 23 110 45 42 25
86 43 117 47 72 10 85 15 85 31 0 15 56 44 86 44 9 0 36 18 60 40 43 39 64 49
64 30 0 -5 -12 -16 -27 -24 -19 -10 -23 -15 -11 -16 9 0 20 4 23 10 3 5 15 15
27 21 15 8 19 8 14 0 -13 -20 28 -12 65 13 27 19 39 22 48 13 8 -8 11 -6 11
10 0 16 5 20 21 16 21 -6 69 6 146 36 33 12 41 20 37 34 -3 9 -1 17 5 17 6 0
11 -4 11 -10 0 -20 47 -9 70 16 17 17 31 23 46 20 14 -4 24 -1 28 9 3 9 12 12
21 8 9 -3 29 4 45 16 24 17 43 21 107 21 54 0 90 6 118 19 22 10 56 21 75 24
19 4 61 23 93 42 32 19 71 35 88 35 16 0 48 9 71 21 33 17 42 18 50 7 7 -10
10 -10 19 5 8 13 23 17 67 17 33 0 63 5 70 12 10 10 15 10 21 -1 6 -9 14 -10
27 -3 11 5 46 12 79 15 33 4 96 13 140 21 44 9 143 18 220 22 117 6 145 10
169 27 l29 20 17 -23 c18 -24 9 -24 154 -4 42 6 221 -16 411 -51 44 -8 101
-15 127 -15 26 0 50 -4 53 -10 3 -5 32 -10 63 -10 46 0 61 -4 75 -21 10 -11
17 -22 15 -24 -2 -2 -32 -11 -68 -20 -386 -99 -952 -301 -1226 -438 -38 -19
-94 -42 -124 -52 -174 -57 -369 -149 -665 -313 -104 -58 -264 -143 -355 -190
-323 -167 -736 -460 -1150 -816 -185 -159 -461 -434 -519 -516 -33 -48 -76
-93 -117 -123 -106 -80 -188 -203 -259 -387 -23 -58 -41 -126 -46 -175 -5 -44
-16 -89 -23 -100 -19 -29 8 -134 52 -202 37 -58 276 -289 326 -316 63 -34 276
-48 327 -21 19 10 35 12 42 6 40 -31 169 -6 324 63 65 29 134 52 181 60 42 7
106 26 142 43 36 17 162 59 280 93 118 34 238 73 265 87 28 14 64 29 80 33 81
22 201 70 212 86 20 27 1 27 -66 -1 -65 -28 -115 -34 -109 -13 7 19 232 91
428 137 231 54 355 93 447 141 47 24 90 39 112 39 20 0 43 8 55 19 43 39 156
92 303 140 84 28 171 60 193 71 23 12 119 47 213 79 95 32 203 73 240 90 l69
31 -28 -47 c-15 -27 -87 -149 -159 -273 -163 -279 -271 -478 -342 -629 -30
-64 -119 -245 -197 -402 -122 -242 -146 -297 -156 -360 -9 -51 -22 -87 -42
-117 -44 -63 -60 -109 -52 -145 l6 -31 27 29 c14 17 48 86 75 155 27 69 64
146 83 173 18 26 33 52 33 57 0 6 8 10 18 10 13 0 22 12 31 43 22 76 99 221
151 285 33 41 46 62 35 62 -8 0 -15 4 -15 10 0 13 38 32 50 25 5 -3 10 9 12
27 2 27 7 33 26 32 17 0 22 5 22 23 0 13 12 36 27 51 24 24 27 25 33 8 5 -16
11 -12 32 25 14 24 38 70 53 102 16 34 36 62 49 66 26 11 62 49 53 58 -4 3 3
11 16 17 13 7 31 34 43 66 13 31 31 59 43 65 11 5 25 21 30 35 5 14 36 60 70
103 82 104 138 191 147 230 4 18 24 51 45 75 25 29 49 73 69 132 52 145 50
142 182 174 108 26 184 63 166 81 -3 3 -43 -5 -88 -19 -132 -42 -158 -34 -117
37 45 77 66 89 164 98 49 5 108 13 133 18 25 6 66 10 91 11 29 0 51 6 59 15
14 16 60 21 60 6 0 -20 41 -22 68 -3 72 52 94 56 347 62 227 6 245 8 327 35
l87 28 19 -23 c17 -21 21 -22 70 -11 29 6 70 23 92 37 26 17 60 29 97 33 58 6
58 6 61 41 l3 36 -113 -8 c-382 -26 -572 -41 -798 -63 -257 -26 -656 -71 -697
-80 -18 -4 -24 0 -29 19 -16 65 -77 71 -113 11 -11 -19 -28 -35 -37 -35 -10 0
-126 -11 -258 -25 -133 -13 -333 -34 -446 -45 -385 -37 -505 -51 -720 -81
-217 -30 -640 -102 -695 -118 l-30 -8 30 -12 c75 -30 182 -52 330 -65 88 -9
184 -20 214 -26 70 -13 260 -12 386 2 55 6 179 12 275 13 145 1 185 5 237 22
33 11 66 17 73 13 20 -12 60 1 60 20 0 22 16 35 53 44 23 5 27 3 27 -14 0 -11
-7 -20 -15 -20 -8 0 -15 -4 -15 -10 0 -11 11 -13 34 -4 9 3 16 17 16 29 0 13
5 27 10 30 12 8 111 17 195 19 l60 1 -1 -41 c0 -29 -9 -51 -29 -77 -26 -32
-41 -39 -140 -66 -60 -17 -171 -44 -245 -61 -74 -16 -175 -43 -225 -59 -49
-17 -144 -42 -210 -56 -197 -43 -427 -106 -700 -190 -233 -72 -627 -175 -695
-181 -25 -3 -99 -22 -165 -44 -66 -21 -271 -88 -457 -149 -355 -116 -527 -163
-748 -205 -210 -39 -277 -39 -315 -1 -22 21 -25 33 -25 97 0 177 83 320 319
553 66 66 135 140 153 165 l31 45 -49 -45 c-27 -25 -97 -92 -156 -150 -99 -96
-109 -103 -124 -88 -15 14 -10 22 57 99 85 97 354 369 449 453 36 32 110 94
165 138 113 89 130 104 163 142 13 14 42 31 63 38 22 6 52 25 67 42 92 104
737 512 1177 744 214 113 605 302 624 302 4 0 60 25 124 55 167 79 484 185
534 178 28 -4 51 1 81 16 49 25 74 28 52 7 -8 -8 -37 -23 -65 -33 -28 -11 -51
-26 -53 -35 -3 -15 2 -15 45 -4 26 7 82 28 123 45 92 40 186 61 239 54 27 -4
52 0 75 11 56 26 116 19 116 -14 0 -10 -104 -125 -231 -256 l-231 -239 5 -45
c12 -115 61 -217 114 -239 15 -6 43 -33 62 -60 45 -66 71 -89 109 -97 l32 -6
0 60 c0 56 3 64 42 114 141 179 308 350 308 315 0 -7 -9 -22 -20 -32 -20 -18
-27 -45 -12 -45 5 0 53 46 108 103 152 157 184 193 184 206 0 6 4 11 9 11 5 0
12 24 15 54 9 66 3 78 -131 290 -109 172 -140 230 -164 306 -14 46 -21 56 -44
60 -15 3 -34 15 -42 27 l-15 23 69 -24 c326 -111 524 -297 564 -530 18 -109 7
-188 -44 -308 -49 -114 -64 -164 -47 -153 21 13 101 199 127 295 17 66 26 124
27 190 1 89 -1 99 -31 155 -91 172 -267 300 -576 420 -268 103 -491 146 -904
176 -183 12 -720 6 -823 -10 -30 -4 -135 -22 -232 -40 -97 -17 -192 -31 -211
-31 -19 0 -60 -9 -93 -20 -39 -14 -79 -20 -119 -18 -55 2 -66 -1 -106 -30 -28
-20 -56 -32 -75 -32 -56 2 -129 -19 -196 -53 -56 -30 -72 -34 -101 -27 -36 8
-48 4 -100 -33 -14 -10 -52 -22 -84 -27 -75 -11 -289 -83 -533 -182 -107 -43
-259 -104 -338 -135 -91 -36 -137 -59 -127 -63 24 -8 -120 -64 -147 -57 -24 7
-78 -18 -78 -34 0 -7 10 -5 25 5 41 27 40 18 -1 -12 -60 -44 -87 -57 -92 -44
-4 12 -215 -90 -249 -121 -13 -11 -26 -17 -30 -14 -3 4 -17 0 -30 -8 -36 -24
-27 -3 13 29 39 31 521 269 567 280 27 6 46 31 34 43 -7 6 -268 -121 -463
-226 -174 -94 -168 -92 -159 -51 5 23 4 30 -4 26 -13 -9 -13 -9 -2 30 8 28 6
34 -20 53 -15 11 -35 21 -44 21 -32 0 -100 -124 -137 -250 -12 -42 -18 -48
-93 -87 -83 -44 -86 -60 -4 -20 28 14 45 18 42 11 -4 -12 -62 -44 -78 -44 -4
0 -43 -20 -87 -45 -44 -25 -82 -45 -83 -45 -2 0 -1 10 2 21 6 20 4 20 -18 9
-13 -8 -79 -51 -147 -97 -67 -45 -130 -83 -140 -83 -24 0 -42 -19 -42 -46 0
-12 -8 -28 -17 -35 -16 -13 -17 -12 -4 4 8 9 11 20 8 24 -8 7 -116 -57 -174
-105 -24 -19 -69 -47 -100 -62 -32 -15 -84 -51 -116 -79 -32 -28 -64 -51 -71
-51 -7 0 -30 -11 -50 -25 -20 -14 -39 -25 -41 -25 -1 0 2 16 8 36 7 22 20 39
34 45 13 5 28 20 33 33 12 33 50 76 67 76 8 0 21 17 30 38 8 20 22 44 29 52 8
8 24 28 36 44 13 18 54 44 104 67 86 40 154 91 154 115 0 16 55 74 70 74 6 0
10 14 10 31 0 23 12 44 44 80 24 26 51 64 60 84 10 20 30 41 44 48 15 6 33 20
41 31 8 11 22 27 31 36 9 9 22 30 29 48 7 18 43 66 80 107 37 41 82 104 99
140 18 36 37 65 43 65 5 0 24 20 41 45 18 25 41 48 53 51 26 7 99 100 85 109
-8 5 -7 11 1 21 6 8 9 24 6 35 -3 12 2 38 13 59 12 24 15 41 9 51 -5 8 -9 25
-9 39 0 17 -8 29 -22 35 -13 6 -24 20 -26 32 -2 15 -36 41 -121 92 -121 73
-131 78 -131 61z m1495 -745 c-38 -18 -81 -36 -95 -39 l-25 -7 24 18 c22 16
132 59 156 61 6 0 -21 -15 -60 -33z m-229 -106 c-14 -11 -26 -29 -26 -39 0
-12 -10 -21 -31 -25 -39 -9 -50 1 -15 14 14 6 26 15 26 20 0 6 -42 -18 -94
-52 -52 -34 -175 -105 -275 -157 -99 -52 -176 -97 -170 -99 6 -2 37 10 70 26
32 16 59 28 59 27 0 -6 -133 -90 -203 -128 -48 -27 -65 -33 -61 -21 4 9 17 21
30 26 13 4 24 14 24 20 0 9 -4 9 -14 0 -8 -6 -18 -10 -22 -9 -15 5 -55 -40
-42 -48 11 -7 -28 -44 -47 -43 -5 0 -2 4 8 10 14 8 16 18 11 45 -6 32 -2 40
32 75 26 26 56 45 89 55 27 8 69 30 93 49 24 18 65 41 91 50 27 9 57 25 66 35
10 11 26 20 36 20 9 0 50 22 91 50 40 27 83 50 94 50 12 0 33 9 46 20 14 10
44 24 67 29 24 5 45 12 48 15 4 3 15 6 26 6 17 0 17 -2 -7 -21z m1654 -404
c-7 -8 -49 -33 -94 -54 -60 -28 -97 -54 -141 -100 -63 -64 -159 -142 -207
-167 -43 -22 -33 -11 25 29 30 21 64 48 77 62 l23 24 -32 -12 c-17 -6 -61 -32
-98 -57 -71 -48 -93 -77 -52 -66 20 6 19 4 -5 -10 -22 -12 -30 -13 -36 -3 -14
21 -70 -8 -70 -37 0 -13 -6 -24 -13 -24 -7 0 -35 -14 -63 -31 -43 -28 -47 -33
-29 -40 11 -4 42 -8 68 -8 42 -1 53 3 80 31 18 18 37 33 42 33 6 1 18 5 28 9
10 5 20 6 23 3 7 -6 -121 -104 -246 -187 -114 -76 -172 -119 -225 -168 -43
-40 -115 -77 -136 -70 -21 7 91 96 216 171 90 54 121 78 123 95 3 17 10 22 35
22 33 1 72 22 60 33 -12 13 -53 7 -85 -13 -35 -21 -78 -27 -78 -10 0 5 11 12
25 16 13 3 30 13 37 22 12 14 9 15 -22 9 -19 -4 -44 -17 -57 -29 -24 -23 -31
-48 -12 -48 17 0 -10 -29 -42 -46 -16 -8 -37 -14 -48 -14 -11 0 -37 -12 -58
-26 -21 -14 -65 -39 -98 -56 -59 -30 -125 -83 -125 -101 0 -15 -49 -56 -52
-45 -2 5 -33 -10 -70 -34 -68 -46 -201 -159 -194 -165 5 -6 158 47 184 63 12
8 22 21 22 28 0 8 11 17 25 20 14 4 32 20 41 39 9 17 23 40 32 50 18 21 40 23
22 2 -21 -26 5 -17 59 19 28 19 51 31 51 26 0 -5 -44 -48 -97 -95 -54 -48
-106 -101 -115 -118 -10 -18 -18 -26 -18 -19 0 6 -12 12 -26 12 -34 0 -88 -58
-72 -77 15 -18 3 -27 -37 -29 -43 -1 -73 -27 -81 -70 -3 -18 -13 -35 -21 -38
-84 -33 -267 -196 -412 -368 -65 -78 -77 -88 -106 -88 -36 0 -64 -20 -91 -65
-18 -30 -18 -30 14 4 18 19 35 31 38 28 9 -9 -66 -136 -101 -172 -18 -18 -38
-42 -44 -54 -14 -25 -39 -28 -48 -5 -5 14 -7 15 -15 1 -5 -9 -3 -26 4 -42 8
-18 8 -29 0 -37 -7 -7 -14 1 -23 30 -11 37 -10 46 14 94 17 34 63 91 124 154
54 54 104 108 111 119 12 19 12 19 7 -2 -4 -13 -3 -23 1 -23 18 0 117 85 170
146 33 37 74 82 92 99 17 17 32 39 32 48 0 15 44 67 57 67 3 0 26 20 52 45 25
24 75 64 111 87 36 24 66 51 68 61 4 18 2 18 -28 2 -25 -13 -34 -14 -40 -5 -9
15 -30 5 -30 -14 0 -7 -17 -31 -38 -54 -31 -33 -44 -41 -72 -40 -27 1 -39 -5
-55 -27 -11 -16 -34 -45 -52 -65 -25 -28 -30 -39 -21 -48 7 -7 19 -12 27 -12
11 0 12 -3 3 -12 -9 -9 -18 -5 -38 15 -33 33 -52 34 -60 3 -6 -25 -54 -77 -54
-59 0 6 7 13 15 17 21 8 19 23 -5 29 -26 7 -17 30 16 45 13 7 24 16 24 22 0 5
13 10 28 10 19 0 38 11 58 31 16 18 48 44 71 59 23 14 57 40 75 56 29 26 34
35 30 65 -5 46 34 87 115 119 110 44 171 79 204 119 19 21 91 84 160 140 70
55 155 132 190 171 35 38 69 70 77 70 8 0 29 13 48 29 37 33 166 111 183 111
6 0 11 7 11 15 0 8 12 17 28 21 61 13 121 36 132 50 7 7 21 14 31 14 10 0 31
11 46 25 88 79 191 155 217 161 17 3 62 21 100 40 74 37 129 46 106 19z
m-2970 -73 c0 -8 -96 -75 -195 -137 l-30 -19 20 23 c11 13 49 40 85 61 36 21
74 47 84 59 20 22 36 27 36 13z m260 -92 c0 -32 -28 -92 -57 -122 -15 -15 -81
-57 -147 -93 -67 -36 -143 -80 -171 -100 -27 -19 -79 -54 -115 -78 -36 -24
-71 -51 -79 -60 -7 -10 -20 -17 -27 -17 -8 0 -14 -4 -14 -9 0 -8 -78 -68 -248
-190 -67 -48 -72 -50 -66 -26 8 32 -2 32 -31 1 -16 -17 -30 -23 -44 -19 -15 4
-21 1 -21 -12 0 -9 -10 -25 -22 -35 -13 -10 -20 -21 -17 -25 11 -10 59 6 59
21 0 14 47 50 55 43 7 -8 -76 -89 -91 -89 -9 0 -22 7 -30 15 -29 29 -12 57 71
119 44 33 164 124 267 203 103 79 259 191 345 249 87 58 165 113 173 123 8 10
36 25 62 35 25 9 52 24 58 32 7 7 21 14 31 14 10 0 23 9 29 20 14 26 30 26 30
0z m-1070 -835 c0 -14 -4 -25 -10 -25 -11 0 -14 33 -3 43 11 11 13 8 13 -18z
m2527 -10 c-4 -8 -11 -15 -17 -15 -14 0 -13 27 3 33 16 6 21 1 14 -18z m-107
-69 c0 -2 -8 -10 -17 -17 -16 -13 -17 -12 -4 4 13 16 21 21 21 13z m-625 -482
c-59 -43 -98 -65 -85 -49 23 27 92 76 99 69 3 -3 -3 -12 -14 -20z m-48 -326
c-33 -71 -67 -116 -97 -128 -30 -12 -45 -40 -56 -102 -3 -21 -12 -42 -20 -49
-11 -9 -14 -6 -14 19 0 41 64 215 82 221 8 3 29 23 47 44 20 22 42 37 56 37
l22 0 -20 -42z"/>
<path d="M4780 4775 c-20 -24 -6 -28 15 -5 10 11 13 20 8 20 -6 0 -16 -7 -23
-15z"/>
<path d="M2731 5079 c-49 -32 -81 -61 -41 -36 14 8 37 17 52 21 15 3 32 15 38
26 14 27 4 24 -49 -11z"/>
<path d="M4866 6560 c-148 -52 -319 -121 -313 -126 9 -10 467 158 467 171 0 8
-9 5 -154 -45z"/>
<path d="M4160 6210 c-9 -6 -10 -10 -3 -10 6 0 15 5 18 10 8 12 4 12 -15 0z"/>
<path d="M3379 5845 c-15 -8 -29 -21 -32 -29 -4 -9 7 -6 31 10 20 14 38 27 41
30 9 9 -15 2 -40 -11z"/>
<path d="M8816 5619 c-14 -17 -26 -38 -26 -47 0 -19 9 -10 39 41 27 45 22 48
-13 6z"/>
<path d="M5985 5405 c-16 -14 -79 -50 -140 -81 -127 -65 -192 -110 -228 -158
-17 -22 -38 -36 -60 -40 -39 -7 -103 -46 -181 -110 -31 -25 -73 -55 -95 -68
-21 -12 -43 -34 -48 -49 -7 -17 -31 -41 -59 -58 -93 -57 -125 -82 -142 -110
-8 -15 -32 -39 -51 -52 -45 -30 -268 -252 -301 -299 l-25 -35 42 35 c59 50
325 292 408 371 39 37 156 126 260 198 105 72 232 170 284 218 84 78 104 91
196 129 92 37 245 118 245 129 0 3 -17 5 -37 5 -25 -1 -48 -9 -68 -25z"/>
<path d="M3552 3225 c0 -16 2 -22 5 -12 2 9 2 23 0 30 -3 6 -5 -1 -5 -18z"/>
<path d="M3565 3170 c-3 -5 1 -10 9 -10 8 0 18 5 21 10 3 6 -1 10 -9 10 -8 0
-18 -4 -21 -10z"/>
</g>
</svg>
